<?xml version="1.0" encoding="UTF-8" standalone="no"?>
<!-- Created with Inkscape (http://www.inkscape.org/) -->

<svg
   version="1.1"
   id="svg2"
   width="500"
   height="500"
   viewBox="0 0 500 500"
   xmlns="http://www.w3.org/2000/svg"
   xmlns:svg="http://www.w3.org/2000/svg">
  <defs
     id="defs6">
    <clipPath
       clipPathUnits="userSpaceOnUse"
       id="clipPath16">
      <path
         d="M 0,0 H 1562.5 V 1562.5 H 0 Z"
         clip-rule="evenodd"
         id="path14" />
    </clipPath>
    <clipPath
       clipPathUnits="userSpaceOnUse"
       id="clipPath28">
      <path
         d="M 0,0 H 1562.5 V 1562.5 H 0 Z"
         clip-rule="evenodd"
         id="path26" />
    </clipPath>
    <clipPath
       clipPathUnits="userSpaceOnUse"
       id="clipPath40">
      <path
         d="M 0,0 H 1562.5 V 1562.5 H 0 Z"
         id="path38" />
    </clipPath>
    <clipPath
       clipPathUnits="userSpaceOnUse"
       id="clipPath46">
      <path
         d="M 0,0 H 1562.5 V 1562.5 H 0 Z"
         id="path44" />
    </clipPath>
    <clipPath
       clipPathUnits="userSpaceOnUse"
       id="clipPath52">
      <path
         d="m 666.04791,477.76828 h 77.38525 V 1002.581 h -77.38525 z"
         id="path50" />
    </clipPath>
    <clipPath
       clipPathUnits="userSpaceOnUse"
       id="clipPath58">
      <path
         d="M 716.93457,1002.581 C 658.15308,806.22571 663.15576,787.4657 670.65979,757.44958 c 10.00537,-40.02148 50.02686,-98.80303 56.28015,-136.32318 3.75202,-25.01336 1.25067,-41.27209 -3.75195,-62.5335 -3.75208,-23.76276 -27.51477,-60.03223 -23.76282,-71.28827 0,-5.00269 6.25336,-10.00537 7.50403,-8.7547 2.50134,0 5.00268,11.25604 3.75201,12.50671 -1.25067,1.25067 -11.25604,-1.25067 -11.25604,-3.75201 -1.25061,-2.50135 3.75202,-10.00537 7.50403,-8.7547 6.25342,0 21.26141,36.26947 26.2641,58.78155 7.50403,25.01343 12.50671,53.77887 8.7547,83.79492 -6.25336,42.52283 -48.77612,100.05371 -58.7815,141.32587 -7.50402,27.51477 -10.00537,45.02417 -7.50402,73.78955 5.00268,43.7735 55.02948,140.0752 50.02679,158.83521 -1.25067,5.00267 -8.7547,7.50397 -8.7547,7.50397"
         id="path56" />
    </clipPath>
    <clipPath
       clipPathUnits="userSpaceOnUse"
       id="clipPath70">
      <path
         d="M 0,0 H 1562.5 V 1562.5 H 0 Z"
         id="path68" />
    </clipPath>
    <clipPath
       clipPathUnits="userSpaceOnUse"
       id="clipPath76">
      <path
         d="M 0,0 H 1562.5 V 1562.5 H 0 Z"
         id="path74" />
    </clipPath>
    <clipPath
       clipPathUnits="userSpaceOnUse"
       id="clipPath82">
      <path
         d="M 696.68457,437.03839 H 893.51868 V 719.55322 H 696.68457 Z"
         id="path80" />
    </clipPath>
    <clipPath
       clipPathUnits="userSpaceOnUse"
       id="clipPath88">
      <path
         d="m 696.92395,708.67334 c 78.79224,-88.79761 137.57379,-118.81372 158.83521,-147.5791 13.75738,-18.76007 20.01074,-36.26947 22.51208,-56.28021 2.50134,-20.01075 -12.50671,-61.2829 -6.25336,-66.28559 2.50135,-2.50134 11.25605,1.25067 11.25605,2.50135 0,1.25067 -13.75739,5.00268 -13.75739,3.75201 0,0 7.50403,-8.7547 10.00537,-7.50403 7.50403,2.50134 15.00806,46.27484 12.50672,70.0376 -2.50135,23.76276 -13.75739,50.02685 -32.51746,72.53888 -23.76276,30.01611 -78.7923,55.02954 -106.30707,81.29364 -20.01068,20.01074 -36.26941,57.53082 -46.27478,57.53082 -3.75201,0 -10.00537,-10.00537 -10.00537,-10.00537"
         id="path86" />
    </clipPath>
    <clipPath
       clipPathUnits="userSpaceOnUse"
       id="clipPath100">
      <path
         d="M 0,0 H 1562.5 V 1562.5 H 0 Z"
         id="path98" />
    </clipPath>
    <clipPath
       clipPathUnits="userSpaceOnUse"
       id="clipPath106">
      <path
         d="M 0,0 H 1562.5 V 1562.5 H 0 Z"
         id="path104" />
    </clipPath>
    <clipPath
       clipPathUnits="userSpaceOnUse"
       id="clipPath112">
      <path
         d="M 768.18286,666.79053 H 817.599 v 156.38763 h -49.41614 z"
         id="path110" />
    </clipPath>
    <clipPath
       clipPathUnits="userSpaceOnUse"
       id="clipPath118">
      <path
         d="M 768.21216,809.97772 C 789.47357,691.164 798.22827,669.90259 805.7323,667.40125 c 3.75201,-1.25068 11.25598,7.50402 11.25598,7.50402 0,0 -12.50665,-6.25335 -12.50665,-6.25335 0,0 11.25604,2.50134 12.50665,6.25335 2.50134,6.25336 -13.75732,20.01075 -18.76001,36.26947 -7.50403,25.01337 -6.25336,85.0456 -13.75738,101.30432 -3.75202,6.25336 -8.7547,11.25605 -12.50672,10.00538 -1.25067,-1.25068 -3.75201,-12.50672 -3.75201,-12.50672"
         id="path116" />
    </clipPath>
    <clipPath
       clipPathUnits="userSpaceOnUse"
       id="clipPath130">
      <path
         d="M 0,0 H 1562.5 V 1562.5 H 0 Z"
         id="path128" />
    </clipPath>
    <clipPath
       clipPathUnits="userSpaceOnUse"
       id="clipPath136">
      <path
         d="M 0,0 H 1562.5 V 1562.5 H 0 Z"
         id="path134" />
    </clipPath>
    <clipPath
       clipPathUnits="userSpaceOnUse"
       id="clipPath142">
      <path
         d="M 476.63974,579.68817 H 680.8313 V 853.92224 H 476.63974 Z"
         id="path140" />
    </clipPath>
    <clipPath
       clipPathUnits="userSpaceOnUse"
       id="clipPath148">
      <path
         d="m 666.90784,853.75122 c -78.7923,-91.29895 -93.80036,-163.83789 -120.06446,-201.35803 -20.01068,-27.51477 -71.2882,-53.77881 -70.03753,-63.78418 0,-3.75202 12.50668,-7.50403 12.50668,-7.50403 0,0 -10.00534,11.25604 -11.25601,10.00537 0,0 2.50134,-11.25604 6.25336,-11.25604 10.00534,-2.50134 55.02948,37.52014 76.29089,67.53619 27.51477,37.52014 41.27215,110.05908 65.03491,145.07788 17.5094,25.01343 56.28021,48.77613 55.02954,57.53089 -1.25067,3.75195 -13.75738,3.75195 -13.75738,3.75195"
         id="path146" />
    </clipPath>
    <clipPath
       clipPathUnits="userSpaceOnUse"
       id="clipPath160">
      <path
         d="M 0,0 H 1562.5 V 1562.5 H 0 Z"
         id="path158" />
    </clipPath>
    <clipPath
       clipPathUnits="userSpaceOnUse"
       id="clipPath166">
      <path
         d="M 0,0 H 1562.5 V 1562.5 H 0 Z"
         id="path164" />
    </clipPath>
    <clipPath
       clipPathUnits="userSpaceOnUse"
       id="clipPath172">
      <path
         d="m 549.70624,412.62589 h 170.4137 v 262.41617 h -170.4137 z"
         id="path170" />
    </clipPath>
    <clipPath
       clipPathUnits="userSpaceOnUse"
       id="clipPath178">
      <path
         d="m 559.3501,429.77374 c 46.27478,86.29633 90.04828,106.30707 110.05902,127.56842 16.25873,16.25879 26.2641,30.01612 35.0188,47.52552 8.7547,18.76007 18.76007,56.28015 13.75738,65.03491 -2.50134,3.75195 -12.50671,5.00268 -12.50671,3.75195 0,0 11.25604,-8.75464 11.25604,-8.75464 0,-1.25067 -8.7547,7.50403 -13.75738,6.2533 -10.00537,-5.00263 -10.00537,-58.7815 -27.51477,-85.0456 -22.51209,-33.76812 -87.547,-63.78424 -106.30701,-96.30163 -13.75739,-22.51209 -22.51209,-56.28021 -18.76007,-67.53626 1.25067,-5.00268 7.50403,-8.7547 11.25604,-8.7547 3.75201,1.25068 10.00537,7.50403 8.7547,10.00538 0,3.75201 -11.25604,6.25335 -11.25604,6.25335"
         id="path176" />
    </clipPath>
    <clipPath
       clipPathUnits="userSpaceOnUse"
       id="clipPath190">
      <path
         d="M 0,0 H 1562.5 V 1562.5 H 0 Z"
         id="path188" />
    </clipPath>
    <clipPath
       clipPathUnits="userSpaceOnUse"
       id="clipPath196">
      <path
         d="M 0,0 H 1562.5 V 1562.5 H 0 Z"
         id="path194" />
    </clipPath>
    <clipPath
       clipPathUnits="userSpaceOnUse"
       id="clipPath202">
      <path
         d="M 699.31775,585.8194 H 969.8584 V 926.50025 H 699.31775 Z"
         id="path200" />
    </clipPath>
    <clipPath
       clipPathUnits="userSpaceOnUse"
       id="clipPath208">
      <path
         d="M 700.6759,922.53821 C 761.9588,796.2204 889.52722,733.68683 924.54602,681.15869 c 21.26141,-31.26678 16.25873,-85.04565 27.51477,-92.54968 5.00269,-3.75202 15.00806,0 15.00806,0 0,1.25067 -15.00806,0 -15.00806,0 0,1.25067 12.50671,-1.25067 15.00806,2.50134 6.25335,10.00537 -6.25342,62.53357 -27.51477,93.80029 -30.01612,47.52552 -135.07251,101.30439 -171.34192,137.57386 -20.01074,20.01074 -33.76813,33.76806 -42.52283,51.27746 -7.50403,16.25879 -5.00268,47.52552 -12.50671,51.27759 -3.75202,2.50134 -12.50672,-2.50134 -12.50672,-2.50134"
         id="path206" />
    </clipPath>
    <clipPath
       clipPathUnits="userSpaceOnUse"
       id="clipPath220">
      <path
         d="M 0,0 H 1562.5 V 1562.5 H 0 Z"
         id="path218" />
    </clipPath>
    <clipPath
       clipPathUnits="userSpaceOnUse"
       id="clipPath226">
      <path
         d="M 0,0 H 1562.5 V 1562.5 H 0 Z"
         id="path224" />
    </clipPath>
    <clipPath
       clipPathUnits="userSpaceOnUse"
       id="clipPath232">
      <path
         d="m 844.39557,711.06732 h 130.55829 v 63.99915 H 844.39557 Z"
         id="path230" />
    </clipPath>
    <clipPath
       clipPathUnits="userSpaceOnUse"
       id="clipPath238">
      <path
         d="m 844.50305,763.703 c 46.27478,-28.76544 76.2909,-21.26141 92.54962,-27.51477 12.50672,-5.00268 25.01349,-26.2641 30.01612,-25.01343 2.50134,1.25068 5.00268,13.75739 5.00268,13.75739 -1.25067,1.25067 -6.25335,-12.50671 -6.25335,-12.50671 1.25067,-1.25068 8.75469,7.50402 8.75469,11.25604 -2.50134,7.50403 -22.51208,22.51208 -37.52014,27.51477 -16.25872,6.25329 -42.52276,-2.50134 -57.53082,2.50134 -11.25604,5.00269 -22.51208,22.51203 -28.76544,21.26135 -3.75202,0 -6.25336,-11.25598 -6.25336,-11.25598"
         id="path236" />
    </clipPath>
    <clipPath
       clipPathUnits="userSpaceOnUse"
       id="clipPath250">
      <path
         d="M 0,0 H 1562.5 V 1562.5 H 0 Z"
         id="path248" />
    </clipPath>
    <clipPath
       clipPathUnits="userSpaceOnUse"
       id="clipPath256">
      <path
         d="M 0,0 H 1562.5 V 1562.5 H 0 Z"
         id="path254" />
    </clipPath>
    <clipPath
       clipPathUnits="userSpaceOnUse"
       id="clipPath262">
      <path
         d="M 412.47443,650.5954 H 636.16376 V 815.52759 H 412.47443 Z"
         id="path260" />
    </clipPath>
    <clipPath
       clipPathUnits="userSpaceOnUse"
       id="clipPath268">
      <path
         d="m 635.64099,801.22308 c -13.75732,20.01075 -52.52814,15.00806 -76.29089,7.50403 -26.2641,-7.50403 -62.53357,-26.2641 -78.79227,-45.02417 -12.50671,-13.75738 -7.50403,-33.76813 -17.5094,-48.77618 -11.25604,-18.76001 -50.02682,-41.2721 -50.02682,-52.52814 -1.25067,-5.00268 5.00265,-11.25604 7.50399,-11.25604 1.25068,1.25067 6.25336,10.00537 5.00269,11.25604 -1.25067,2.50134 -12.50668,2.50134 -12.50668,1.25067 -1.25067,-2.50134 6.25332,-10.00537 10.00534,-10.00537 11.25604,0 38.77081,32.51746 51.27752,52.5282 12.50672,17.50934 12.50672,43.77344 26.26407,57.53082 12.50672,15.00806 32.51746,22.51209 52.5282,28.76544 22.51209,7.50403 71.28827,0 77.54157,8.7547 3.75207,3.75202 0,13.75739 -1.25061,13.75739 -1.25074,0 -7.50403,-10.00537 -6.25342,-12.50672 1.25073,-1.25067 12.50671,-1.25067 12.50671,-1.25067"
         id="path266" />
    </clipPath>
    <clipPath
       clipPathUnits="userSpaceOnUse"
       id="clipPath280">
      <path
         d="M 0,0 H 1562.5 V 1562.5 H 0 Z"
         id="path278" />
    </clipPath>
    <clipPath
       clipPathUnits="userSpaceOnUse"
       id="clipPath286">
      <path
         d="M 0,0 H 1562.5 V 1562.5 H 0 Z"
         id="path284" />
    </clipPath>
    <clipPath
       clipPathUnits="userSpaceOnUse"
       id="clipPath292">
      <path
         d="m 502.28821,659.81903 h 80.90277 v 83.01331 h -80.90277 z"
         id="path290" />
    </clipPath>
    <clipPath
       clipPathUnits="userSpaceOnUse"
       id="clipPath298">
      <path
         d="m 583.11279,742.44147 c -57.53082,-28.76544 -82.54425,-81.29358 -80.0429,-82.54425 3.75198,-2.50135 80.0429,82.54425 80.0429,82.54425"
         id="path296" />
    </clipPath>
    <clipPath
       clipPathUnits="userSpaceOnUse"
       id="clipPath310">
      <path
         d="M 0,0 H 1562.5 V 1562.5 H 0 Z"
         id="path308" />
    </clipPath>
    <clipPath
       clipPathUnits="userSpaceOnUse"
       id="clipPath316">
      <path
         d="M 0,0 H 1562.5 V 1562.5 H 0 Z"
         id="path314" />
    </clipPath>
    <clipPath
       clipPathUnits="userSpaceOnUse"
       id="clipPath322">
      <path
         d="M 588.61383,594.71094 H 643.8974 V 785.19886 H 588.61383 Z"
         id="path320" />
    </clipPath>
    <clipPath
       clipPathUnits="userSpaceOnUse"
       id="clipPath328">
      <path
         d="m 626.88635,784.96436 c -16.25873,-42.52283 6.25336,-85.04566 1.25067,-112.56043 -5.00268,-25.01337 -42.52282,-58.78149 -38.77081,-68.78686 1.25067,-3.75202 13.75739,-3.75202 13.75739,-3.75202 0,0 -13.75739,6.25336 -13.75739,5.00269 -1.25067,-1.25067 3.75202,-10.00537 7.50403,-10.00537 8.7547,1.25067 38.77081,46.27484 45.02417,75.04028 7.50403,33.76813 -15.00806,115.06171 -15.00806,115.06171"
         id="path326" />
    </clipPath>
    <clipPath
       clipPathUnits="userSpaceOnUse"
       id="clipPath340">
      <path
         d="M 0,0 H 1562.5 V 1562.5 H 0 Z"
         id="path338" />
    </clipPath>
    <clipPath
       clipPathUnits="userSpaceOnUse"
       id="clipPath346">
      <path
         d="M 0,0 H 1562.5 V 1562.5 H 0 Z"
         id="path344" />
    </clipPath>
    <clipPath
       clipPathUnits="userSpaceOnUse"
       id="clipPath352">
      <path
         d="m 623.09033,434.50775 h 31.8042 v 122.08697 h -31.8042 z"
         id="path350" />
    </clipPath>
    <clipPath
       clipPathUnits="userSpaceOnUse"
       id="clipPath358">
      <path
         d="m 648.14777,448.53381 c -8.7547,56.28022 8.7547,106.30701 6.25335,107.55774 -1.25067,0 -27.51477,-52.5282 -30.01611,-72.53894 -2.50134,-15.00805 0,-32.51745 5.00269,-40.02148 3.75201,-6.25336 13.75738,-10.00537 16.25872,-8.7547 2.50135,1.25067 2.50135,13.75738 2.50135,13.75738"
         id="path356" />
    </clipPath>
    <clipPath
       clipPathUnits="userSpaceOnUse"
       id="clipPath370">
      <path
         d="M 0,0 H 1562.5 V 1562.5 H 0 Z"
         id="path368" />
    </clipPath>
    <clipPath
       clipPathUnits="userSpaceOnUse"
       id="clipPath376">
      <path
         d="M 0,0 H 1562.5 V 1562.5 H 0 Z"
         id="path374" />
    </clipPath>
    <clipPath
       clipPathUnits="userSpaceOnUse"
       id="clipPath382">
      <path
         d="m 790.48975,490.82214 h 41.0376 v 130.77331 h -41.0376 z"
         id="path380" />
    </clipPath>
    <clipPath
       clipPathUnits="userSpaceOnUse"
       id="clipPath388">
      <path
         d="m 790.72424,613.62238 c 22.51209,-55.02948 12.50672,-66.28553 12.50672,-78.79224 1.25067,-15.00806 8.7547,-40.02149 15.00805,-43.7735 3.75202,-1.25067 12.50672,5.00269 12.50672,5.00269 0,0 -12.50672,-3.75202 -12.50672,-3.75202 0,0 11.25605,0 12.50672,3.75202 2.50134,5.00268 -11.25604,21.26141 -12.50672,33.76812 -2.50134,15.00806 10.00537,32.5174 7.50403,47.52546 -2.50134,15.00805 -16.25873,42.52282 -23.76275,43.77349 -3.75202,1.25068 -11.25605,-7.50402 -11.25605,-7.50402"
         id="path386" />
    </clipPath>
    <clipPath
       clipPathUnits="userSpaceOnUse"
       id="clipPath400">
      <path
         d="M 0,0 H 1562.5 V 1562.5 H 0 Z"
         id="path398" />
    </clipPath>
    <clipPath
       clipPathUnits="userSpaceOnUse"
       id="clipPath406">
      <path
         d="M 0,0 H 1562.5 V 1562.5 H 0 Z"
         id="path404" />
    </clipPath>
    <clipPath
       clipPathUnits="userSpaceOnUse"
       id="clipPath412">
      <path
         d="m 856.81439,496.68463 h 69.76398 v 79.73029 h -69.76398 z"
         id="path410" />
    </clipPath>
    <clipPath
       clipPathUnits="userSpaceOnUse"
       id="clipPath418">
      <path
         d="m 857.00983,564.84619 c 65.03485,-71.28821 68.78692,-61.28284 68.78692,-60.03219 -1.25073,0 -12.50671,-7.504 -12.50671,-7.504 0,0 11.25598,2.50131 12.50671,6.25335 2.50135,8.7547 -27.51477,41.2721 -40.02148,55.02955 -7.50403,7.50396 -16.25873,18.76001 -21.26142,17.50939 -3.75201,0 -7.50402,-11.2561 -7.50402,-11.2561"
         id="path416" />
    </clipPath>
    <clipPath
       clipPathUnits="userSpaceOnUse"
       id="clipPath430">
      <path
         d="M 0,0 H 1562.5 V 1562.5 H 0 Z"
         id="path428" />
    </clipPath>
    <clipPath
       clipPathUnits="userSpaceOnUse"
       id="clipPath436">
      <path
         d="M 0,0 H 1562.5 V 1562.5 H 0 Z"
         id="path434" />
    </clipPath>
    <clipPath
       clipPathUnits="userSpaceOnUse"
       id="clipPath442">
      <path
         d="m 709.38171,749.53516 h 30.63171 v 130.58765 h -30.63171 z"
         id="path440" />
    </clipPath>
    <clipPath
       clipPathUnits="userSpaceOnUse"
       id="clipPath448">
      <path
         d="m 728.19067,763.70294 c 17.5094,85.0456 11.25605,111.30969 5.00269,113.81104 -3.75201,1.25067 -12.50671,-7.50397 -12.50671,-8.7547 1.25067,-1.25061 11.25604,-2.50135 12.50671,-1.25061 1.25067,1.25061 -5.00269,12.50665 -6.25336,12.50665 -2.50134,-1.25067 7.50403,-46.27484 3.75202,-66.28552 -3.75202,-16.25873 -21.26142,-33.76813 -21.26142,-45.02417 0,-7.50403 5.00269,-16.25873 10.00537,-17.5094 3.75202,-2.50134 13.75739,-1.25067 15.00806,1.25067 1.25067,2.50134 -6.25336,11.25604 -6.25336,11.25604"
         id="path446" />
    </clipPath>
    <clipPath
       clipPathUnits="userSpaceOnUse"
       id="clipPath460">
      <path
         d="M 0,0 H 1562.5 V 1562.5 H 0 Z"
         id="path458" />
    </clipPath>
    <clipPath
       clipPathUnits="userSpaceOnUse"
       id="clipPath466">
      <path
         d="M 0,0 H 1562.5 V 1562.5 H 0 Z"
         id="path464" />
    </clipPath>
    <clipPath
       clipPathUnits="userSpaceOnUse"
       id="clipPath472">
      <path
         d="m 733.84308,796.87012 h 202.12994 v 88.52405 H 733.84308 Z"
         id="path470" />
    </clipPath>
    <clipPath
       clipPathUnits="userSpaceOnUse"
       id="clipPath478">
      <path
         d="m 734.44403,876.26331 c 76.29089,-56.28016 123.81641,-47.52546 150.08051,-55.02948 18.76007,-6.25336 36.26941,-26.2641 43.77349,-23.76276 3.75202,1.25067 7.50403,8.7547 6.25336,10.00537 -1.25073,2.50134 -10.00537,2.50134 -11.25604,0 -1.25067,-1.25067 3.75201,-10.00537 6.25336,-10.00537 2.50134,0 6.25335,6.25336 6.25335,10.00537 -2.5014,7.50403 -23.76275,18.76001 -42.52282,26.26404 -27.51477,8.75476 -86.29633,1.25073 -111.30976,13.75738 -18.76001,8.7547 -30.01605,37.52015 -38.77075,37.52015 -3.75201,0 -8.7547,-8.7547 -8.7547,-8.7547"
         id="path476" />
    </clipPath>
    <clipPath
       clipPathUnits="userSpaceOnUse"
       id="clipPath490">
      <path
         d="M 0,0 H 1562.5 V 1562.5 H 0 Z"
         clip-rule="evenodd"
         id="path488" />
    </clipPath>
    <clipPath
       clipPathUnits="userSpaceOnUse"
       id="clipPath510">
      <path
         d="M 0,0 H 1562.5 V 1562.5 H 0 Z"
         id="path508" />
    </clipPath>
    <clipPath
       clipPathUnits="userSpaceOnUse"
       id="clipPath516">
      <path
         d="M 0,0 H 1562.5 V 1562.5 H 0 Z"
         id="path514" />
    </clipPath>
    <clipPath
       clipPathUnits="userSpaceOnUse"
       id="clipPath522">
      <path
         d="M 213.26205,426.54123 H 645.9176 V 1151.8755 H 213.26205 Z"
         id="path520" />
    </clipPath>
    <clipPath
       clipPathUnits="userSpaceOnUse"
       id="clipPath528">
      <path
         d="m 280.35229,452.41351 c -38.37533,248.72919 -28.42617,304.16028 -17.05569,353.90613 9.94916,42.63928 21.31964,79.59332 44.06058,116.54736 24.16229,39.7967 62.53766,82.436 100.91302,110.8623 34.11145,27.0048 76.75067,44.0605 115.12604,58.2736 38.37537,14.213 99.4917,14.213 115.1261,28.4262 7.10657,7.1065 8.52789,21.3197 5.68524,22.7409 -2.84259,4.264 -24.16229,-2.8426 -24.16229,-7.1065 -1.42127,-2.8425 14.21313,-17.0557 17.05572,-15.6344 2.84265,1.4212 5.68524,22.7409 1.42133,27.0049 -8.52783,7.1065 -32.69013,0 -55.43103,-5.6852 -39.79669,-11.3706 -125.07532,-45.4819 -163.45062,-66.8015 -24.1623,-14.2132 -36.95408,-21.3199 -55.4311,-39.7968 C 337.20471,1009.5669 301.67197,969.77026 278.931,931.39484 256.19003,890.17688 241.97696,843.27368 232.02777,796.37048 220.6573,743.78198 213.55075,685.5083 214.97206,630.07727 c 2.84262,-58.27374 11.37047,-143.55231 27.0049,-174.82114 8.52785,-14.2131 19.89831,-27.00488 27.00488,-27.00488 5.68524,1.42133 11.37045,24.16226 11.37045,24.16226"
         id="path526" />
    </clipPath>
    <clipPath
       clipPathUnits="userSpaceOnUse"
       id="clipPath540">
      <path
         d="M 0,0 H 1562.5 V 1562.5 H 0 Z"
         id="path538" />
    </clipPath>
    <clipPath
       clipPathUnits="userSpaceOnUse"
       id="clipPath546">
      <path
         d="M 0,0 H 1562.5 V 1562.5 H 0 Z"
         id="path544" />
    </clipPath>
    <clipPath
       clipPathUnits="userSpaceOnUse"
       id="clipPath552">
      <path
         d="M 777.87561,196.94629 H 1210.5313 V 922.28058 H 777.87561 Z"
         id="path550" />
    </clipPath>
    <clipPath
       clipPathUnits="userSpaceOnUse"
       id="clipPath558">
      <path
         d="m 1143.4409,896.40833 c 38.3754,-248.72925 28.4263,-304.16028 17.0558,-353.90613 -9.9492,-42.63928 -21.3197,-79.59333 -44.0607,-116.54737 -24.1622,-39.79669 -62.5376,-82.43597 -100.9129,-110.86218 -34.11148,-27.00488 -76.75076,-44.06061 -115.12613,-58.27368 -38.37536,-14.21307 -99.4917,-14.21307 -115.1261,-28.42621 -7.10656,-7.10657 -8.52783,-21.31964 -5.68518,-22.74097 2.84259,-4.26391 24.16223,2.84266 24.16223,7.10657 1.42133,2.84259 -14.21313,17.05567 -17.05566,15.6344 -2.84265,-1.42132 -5.6853,-22.74097 -1.42139,-27.00488 8.5279,-7.10651 32.69019,0 55.4311,5.68524 39.79669,11.37048 125.07525,45.48193 163.45063,66.80151 24.1622,14.21314 36.9541,21.31971 55.4311,39.7967 27.0049,25.58361 62.5376,65.38024 85.2786,103.75567 22.741,41.21796 36.954,88.12116 46.9032,135.02435 11.3705,52.58851 18.4771,110.86219 17.0557,166.29328 -2.8427,58.27368 -11.3705,143.55225 -27.0049,174.82104 -8.5278,14.21314 -19.8983,27.00489 -27.0049,27.00489 -5.6852,-1.42127 -11.3705,-24.16223 -11.3705,-24.16223"
         id="path556" />
    </clipPath>
    <clipPath
       clipPathUnits="userSpaceOnUse"
       id="clipPath570">
      <path
         d="M 0,0 H 1562.5 V 1562.5 H 0 Z"
         id="path568" />
    </clipPath>
    <clipPath
       clipPathUnits="userSpaceOnUse"
       id="clipPath576">
      <path
         d="M 0,0 H 1562.5 V 1562.5 H 0 Z"
         id="path574" />
    </clipPath>
    <clipPath
       clipPathUnits="userSpaceOnUse"
       id="clipPath582">
      <path
         d="M 725.18127,139.11 H 851.63098 V 312.42566 H 725.18127 Z"
         id="path580" />
    </clipPath>
    <clipPath
       clipPathUnits="userSpaceOnUse"
       id="clipPath588">
      <path
         d="m 819.48969,160.87949 c -65.03486,75.04028 20.01074,112.56039 27.51477,130.06979 3.75201,7.50403 2.50134,16.25873 -1.25068,18.76007 -2.50134,2.50134 -18.76007,-2.50134 -20.01074,-6.25336 0,-2.50134 12.50672,-16.25872 17.5094,-15.00805 3.75202,0 8.7547,8.7547 7.50403,12.50671 -1.25067,5.00269 -8.7547,11.25604 -15.00806,11.25604 -11.25604,1.25067 -33.76806,-15.00805 -50.02685,-28.76544 -21.26135,-17.5094 -62.53351,-48.77618 -60.03217,-72.53891 1.25067,-25.01343 63.78424,-67.53625 81.29364,-71.28827 7.50403,-1.25065 13.75733,2.50136 16.25867,6.25336 1.25067,2.50134 -3.75201,15.00806 -3.75201,15.00806"
         id="path586" />
    </clipPath>
    <clipPath
       clipPathUnits="userSpaceOnUse"
       id="clipPath600">
      <path
         d="M 0,0 H 1562.5 V 1562.5 H 0 Z"
         id="path598" />
    </clipPath>
    <clipPath
       clipPathUnits="userSpaceOnUse"
       id="clipPath606">
      <path
         d="M 0,0 H 1562.5 V 1562.5 H 0 Z"
         id="path604" />
    </clipPath>
    <clipPath
       clipPathUnits="userSpaceOnUse"
       id="clipPath612">
      <path
         d="m 564.72467,1039.8662 h 126.44971 v 173.3157 H 564.72467 Z"
         id="path610" />
    </clipPath>
    <clipPath
       clipPathUnits="userSpaceOnUse"
       id="clipPath618">
      <path
         d="m 596.86597,1191.4125 c 65.03485,-75.0403 -20.01075,-112.5604 -27.51477,-130.0698 -3.75202,-7.5041 -2.50135,-16.2587 1.25067,-18.7602 2.50134,-2.5012 18.76007,2.5015 20.01074,6.2534 0,2.5014 -12.50671,16.2587 -17.5094,15.0081 -3.75201,0 -8.7547,-8.7546 -7.50403,-12.5067 1.25067,-5.0027 8.7547,-11.256 15.008,-11.256 11.2561,-1.2507 33.76819,15.0081 50.02685,28.7654 21.26142,17.5094 62.53357,48.7761 60.03223,72.5389 -1.25067,25.0135 -63.78418,67.5363 -81.29358,71.2882 -7.50403,1.2508 -13.75738,-2.5013 -16.25879,-6.2533 -1.25061,-2.5013 3.75208,-15.008 3.75208,-15.008"
         id="path616" />
    </clipPath>
  </defs>
  <g
     id="g8"
     transform="matrix(0.31999998,0,0,0.31999998,0,9.434666e-6)">
    <g
       id="g10">
      <g
         id="g12"
         clip-path="url(#clipPath16)">
        <g
           id="g18"
           transform="scale(3.125)">
          <path
             d="M 0,0 H 500 V 500 H 0 Z"
             style="fill:#ffffff;fill-opacity:1;fill-rule:nonzero;stroke:none"
             id="path20" />
        </g>
      </g>
    </g>
    <g
       id="g22">
      <g
         id="g24"
         clip-path="url(#clipPath28)">
        <g
           id="g30"
           transform="scale(3.125)">
          <path
             d="M 0,0 H 500 V 500 H 0 Z"
             style="fill:#ffffff;fill-opacity:1;fill-rule:nonzero;stroke:none"
             id="path32" />
        </g>
      </g>
    </g>
    <g
       id="g34">
      <g
         id="g36"
         clip-path="url(#clipPath40)">
        <g
           id="g42"
           clip-path="url(#clipPath46)">
          <g
             id="g48"
             clip-path="url(#clipPath52)">
            <g
               id="g54"
               clip-path="url(#clipPath58)">
              <g
                 id="g60"
                 transform="matrix(0.70350242,0,0,0.70350242,611.87823,428.5231)">
                <path
                   d="M 0,0 H 256 V 889 H 0 Z"
                   style="fill:#1e1e1e;fill-opacity:1;fill-rule:nonzero;stroke:none"
                   id="path62" />
              </g>
            </g>
          </g>
        </g>
      </g>
    </g>
    <g
       id="g64">
      <g
         id="g66"
         clip-path="url(#clipPath70)">
        <g
           id="g72"
           clip-path="url(#clipPath76)">
          <g
             id="g78"
             clip-path="url(#clipPath82)">
            <g
               id="g84"
               clip-path="url(#clipPath88)">
              <g
                 id="g90"
                 transform="matrix(1.1578478,0,0,1.1578478,646.89709,387.25095)">
                <path
                   d="M 0,0 H 256 V 329 H 0 Z"
                   style="fill:#1e1e1e;fill-opacity:1;fill-rule:nonzero;stroke:none"
                   id="path92" />
              </g>
            </g>
          </g>
        </g>
      </g>
    </g>
    <g
       id="g94">
      <g
         id="g96"
         clip-path="url(#clipPath100)">
        <g
           id="g102"
           clip-path="url(#clipPath106)">
          <g
             id="g108"
             clip-path="url(#clipPath112)">
            <g
               id="g114"
               clip-path="url(#clipPath118)">
              <g
                 id="g120"
                 transform="matrix(0.5813666,0,0,0.5813666,718.1853,617.37439)">
                <path
                   d="M 0,0 H 256 V 439 H 0 Z"
                   style="fill:#1e1e1e;fill-opacity:1;fill-rule:nonzero;stroke:none"
                   id="path122" />
              </g>
            </g>
          </g>
        </g>
      </g>
    </g>
    <g
       id="g124">
      <g
         id="g126"
         clip-path="url(#clipPath130)">
        <g
           id="g132"
           clip-path="url(#clipPath136)">
          <g
             id="g138"
             clip-path="url(#clipPath142)">
            <g
               id="g144"
               clip-path="url(#clipPath148)">
              <g
                 id="g150"
                 transform="matrix(1.1871604,0,0,1.1871604,426.77899,529.82745)">
                <path
                   d="M 0,0 H 256 V 316 H 0 Z"
                   style="fill:#1e1e1e;fill-opacity:1;fill-rule:nonzero;stroke:none"
                   id="path152" />
              </g>
            </g>
          </g>
        </g>
      </g>
    </g>
    <g
       id="g154">
      <g
         id="g156"
         clip-path="url(#clipPath160)">
        <g
           id="g162"
           clip-path="url(#clipPath166)">
          <g
             id="g168"
             clip-path="url(#clipPath172)">
            <g
               id="g174"
               clip-path="url(#clipPath178)">
              <g
                 id="g180"
                 transform="matrix(1.0454827,0,0,1.0454827,500.56854,363.48819)">
                <path
                   d="M 0,0 H 256 V 345 H 0 Z"
                   style="fill:#1e1e1e;fill-opacity:1;fill-rule:nonzero;stroke:none"
                   id="path182" />
              </g>
            </g>
          </g>
        </g>
      </g>
    </g>
    <g
       id="g184">
      <g
         id="g186"
         clip-path="url(#clipPath190)">
        <g
           id="g192"
           clip-path="url(#clipPath196)">
          <g
             id="g198"
             clip-path="url(#clipPath202)">
            <g
               id="g204"
               clip-path="url(#clipPath208)">
              <g
                 id="g210"
                 transform="matrix(1.4314321,0,0,1.4314321,650.64905,538.58215)">
                <path
                   d="M 0,0 H 256 V 306 H 0 Z"
                   style="fill:#1e1e1e;fill-opacity:1;fill-rule:nonzero;stroke:none"
                   id="path212" />
              </g>
            </g>
          </g>
        </g>
      </g>
    </g>
    <g
       id="g214">
      <g
         id="g216"
         clip-path="url(#clipPath220)">
        <g
           id="g222"
           clip-path="url(#clipPath226)">
          <g
             id="g228"
             clip-path="url(#clipPath232)">
            <g
               id="g234"
               clip-path="url(#clipPath238)">
              <g
                 id="g240"
                 transform="matrix(0.63999182,0,0,0.63999182,794.4762,661.14795)">
                <path
                   d="M 0,0 H 360 V 256 H 0 Z"
                   style="fill:#1e1e1e;fill-opacity:1;fill-rule:nonzero;stroke:none"
                   id="path242" />
              </g>
            </g>
          </g>
        </g>
      </g>
    </g>
    <g
       id="g244">
      <g
         id="g246"
         clip-path="url(#clipPath250)">
        <g
           id="g252"
           clip-path="url(#clipPath256)">
          <g
             id="g258"
             clip-path="url(#clipPath262)">
            <g
               id="g264"
               clip-path="url(#clipPath268)">
              <g
                 id="g270"
                 transform="matrix(1.0308264,0,0,1.0308264,362.99475,601.11572)">
                <path
                   d="M 0,0 H 314 V 256 H 0 Z"
                   style="fill:#1e1e1e;fill-opacity:1;fill-rule:nonzero;stroke:none"
                   id="path272" />
              </g>
            </g>
          </g>
        </g>
      </g>
    </g>
    <g
       id="g274">
      <g
         id="g276"
         clip-path="url(#clipPath280)">
        <g
           id="g282"
           clip-path="url(#clipPath286)">
          <g
             id="g288"
             clip-path="url(#clipPath292)">
            <g
               id="g294"
               clip-path="url(#clipPath298)">
              <g
                 id="g300"
                 transform="matrix(0.70350242,0,0,0.70350242,453.04303,609.87036)">
                <path
                   d="M 0,0 H 256 V 261 H 0 Z"
                   style="fill:#1e1e1e;fill-opacity:1;fill-rule:nonzero;stroke:none"
                   id="path302" />
              </g>
            </g>
          </g>
        </g>
      </g>
    </g>
    <g
       id="g304">
      <g
         id="g306"
         clip-path="url(#clipPath310)">
        <g
           id="g312"
           clip-path="url(#clipPath316)">
          <g
             id="g318"
             clip-path="url(#clipPath322)">
            <g
               id="g324"
               clip-path="url(#clipPath328)">
              <g
                 id="g330"
                 transform="matrix(0.6009084,0,0,0.6009084,539.33936,544.83551)">
                <path
                   d="M 0,0 H 256 V 483 H 0 Z"
                   style="fill:#1e1e1e;fill-opacity:1;fill-rule:nonzero;stroke:none"
                   id="path332" />
              </g>
            </g>
          </g>
        </g>
      </g>
    </g>
    <g
       id="g334">
      <g
         id="g336"
         clip-path="url(#clipPath340)">
        <g
           id="g342"
           clip-path="url(#clipPath346)">
          <g
             id="g348"
             clip-path="url(#clipPath352)">
            <g
               id="g354"
               clip-path="url(#clipPath358)">
              <g
                 id="g360"
                 transform="matrix(0.51297051,0,0,0.51297051,574.35815,384.7496)">
                <path
                   d="M 0,0 H 256 V 432 H 0 Z"
                   style="fill:#1e1e1e;fill-opacity:1;fill-rule:nonzero;stroke:none"
                   id="path362" />
              </g>
            </g>
          </g>
        </g>
      </g>
    </g>
    <g
       id="g364">
      <g
         id="g366"
         clip-path="url(#clipPath370)">
        <g
           id="g372"
           clip-path="url(#clipPath376)">
          <g
             id="g378"
             clip-path="url(#clipPath382)">
            <g
               id="g384"
               clip-path="url(#clipPath388)">
              <g
                 id="g390"
                 transform="matrix(0.54716861,0,0,0.54716861,740.69739,441.02979)">
                <path
                   d="M 0,0 H 256 V 423 H 0 Z"
                   style="fill:#1e1e1e;fill-opacity:1;fill-rule:nonzero;stroke:none"
                   id="path392" />
              </g>
            </g>
          </g>
        </g>
      </g>
    </g>
    <g
       id="g394">
      <g
         id="g396"
         clip-path="url(#clipPath400)">
        <g
           id="g402"
           clip-path="url(#clipPath406)">
          <g
             id="g408"
             clip-path="url(#clipPath412)">
            <g
               id="g414"
               clip-path="url(#clipPath418)">
              <g
                 id="g420"
                 transform="matrix(0.664419,0,0,0.664419,806.98297,443.53113)">
                <path
                   d="M 0,0 H 256 V 275 H 0 Z"
                   style="fill:#1e1e1e;fill-opacity:1;fill-rule:nonzero;stroke:none"
                   id="path422" />
              </g>
            </g>
          </g>
        </g>
      </g>
    </g>
    <g
       id="g424">
      <g
         id="g426"
         clip-path="url(#clipPath430)">
        <g
           id="g432"
           clip-path="url(#clipPath436)">
          <g
             id="g438"
             clip-path="url(#clipPath442)">
            <g
               id="g444"
               clip-path="url(#clipPath448)">
              <g
                 id="g450"
                 transform="matrix(0.53739774,0,0,0.53739774,659.40375,701.16937)">
                <path
                   d="M 0,0 H 256 V 426 H 0 Z"
                   style="fill:#1e1e1e;fill-opacity:1;fill-rule:nonzero;stroke:none"
                   id="path452" />
              </g>
            </g>
          </g>
        </g>
      </g>
    </g>
    <g
       id="g454">
      <g
         id="g456"
         clip-path="url(#clipPath460)">
        <g
           id="g462"
           clip-path="url(#clipPath466)">
          <g
             id="g468"
             clip-path="url(#clipPath472)">
            <g
               id="g474"
               clip-path="url(#clipPath478)">
              <g
                 id="g480"
                 transform="matrix(0.73770046,0,0,0.73770046,684.41718,747.44421)">
                <path
                   d="M 0,0 H 409 V 256 H 0 Z"
                   style="fill:#1e1e1e;fill-opacity:1;fill-rule:nonzero;stroke:none"
                   id="path482" />
              </g>
            </g>
          </g>
        </g>
      </g>
    </g>
    <g
       id="g484">
      <g
         id="g486"
         clip-path="url(#clipPath490)">
        <g
           id="g492"
           transform="matrix(14.213097,0,0,14.213097,130.1743,73.102554)">
          <text
             xml:space="preserve"
             transform="translate(0,19)"
             style="font-variant:normal;font-weight:normal;font-size:21.12px;font-family:Telegraf;-inkscape-font-specification:Telegraf-Regular;writing-mode:lr-tb;fill:#000000;fill-opacity:1;fill-rule:nonzero;stroke:none"
             id="text496"><tspan
               x="0 12.158981 23.051407"
               y="0"
               id="tspan494">est</tspan></text>
        </g>
        <g
           id="g498"
           transform="matrix(14.213097,0,0,14.213097,722.91089,980.84058)">
          <text
             xml:space="preserve"
             transform="translate(0.015625,19)"
             style="font-variant:normal;font-weight:normal;font-size:21.12px;font-family:Telegraf;-inkscape-font-specification:Telegraf-Regular;writing-mode:lr-tb;fill:#000000;fill-opacity:1;fill-rule:nonzero;stroke:none"
             id="text502"><tspan
               x="0 9.9002838 23.156952 34.788193"
               y="0"
               id="tspan500">1373</tspan></text>
        </g>
      </g>
    </g>
    <g
       id="g504">
      <g
         id="g506"
         clip-path="url(#clipPath510)">
        <g
           id="g512"
           clip-path="url(#clipPath516)">
          <g
             id="g518"
             clip-path="url(#clipPath522)">
            <g
               id="g524"
               clip-path="url(#clipPath528)">
              <g
                 id="g530"
                 transform="matrix(2.1208606,0,0,2.1208606,158.11967,371.39886)">
                <path
                   d="M 0,0 H 256 V 393 H 0 Z"
                   style="fill:#000000;fill-opacity:1;fill-rule:nonzero;stroke:none"
                   id="path532" />
              </g>
            </g>
          </g>
        </g>
      </g>
    </g>
    <g
       id="g534">
      <g
         id="g536"
         clip-path="url(#clipPath540)">
        <g
           id="g542"
           clip-path="url(#clipPath546)">
          <g
             id="g548"
             clip-path="url(#clipPath552)">
            <g
               id="g554"
               clip-path="url(#clipPath558)">
              <g
                 id="g560"
                 transform="matrix(-2.1208606,0,0,-2.1208606,1265.6736,977.42297)">
                <path
                   d="M 0,0 H 256 V 393 H 0 Z"
                   style="fill:#000000;fill-opacity:1;fill-rule:nonzero;stroke:none"
                   id="path562" />
              </g>
            </g>
          </g>
        </g>
      </g>
    </g>
    <g
       id="g564">
      <g
         id="g566"
         clip-path="url(#clipPath570)">
        <g
           id="g572"
           clip-path="url(#clipPath576)">
          <g
             id="g578"
             clip-path="url(#clipPath582)">
            <g
               id="g584"
               clip-path="url(#clipPath588)">
              <g
                 id="g590"
                 transform="matrix(0.88426352,0,0,0.88426352,675.66254,89.59124)">
                <path
                   d="M 0,0 H 256 V 310 H 0 Z"
                   style="fill:#000000;fill-opacity:1;fill-rule:nonzero;stroke:none"
                   id="path592" />
              </g>
            </g>
          </g>
        </g>
      </g>
    </g>
    <g
       id="g594">
      <g
         id="g596"
         clip-path="url(#clipPath600)">
        <g
           id="g602"
           clip-path="url(#clipPath606)">
          <g
             id="g608"
             clip-path="url(#clipPath612)">
            <g
               id="g614"
               clip-path="url(#clipPath618)">
              <g
                 id="g620"
                 transform="matrix(-0.88426352,0,0,-0.88426352,740.69312,1262.7007)">
                <path
                   d="M 0,0 H 256 V 310 H 0 Z"
                   style="fill:#000000;fill-opacity:1;fill-rule:nonzero;stroke:none"
                   id="path622" />
              </g>
            </g>
          </g>
        </g>
      </g>
    </g>
  </g>
</svg>
